<?xml version="1.0" encoding="UTF-8" standalone="no"?>
<svg
   xmlns:dc="http://purl.org/dc/elements/1.1/"
   xmlns:cc="http://creativecommons.org/ns#"
   xmlns:rdf="http://www.w3.org/1999/02/22-rdf-syntax-ns#"
   xmlns:svg="http://www.w3.org/2000/svg"
   xmlns="http://www.w3.org/2000/svg"
   version="1.1"
   id="svg2"
   x="0px"
   y="0px"
   width="265.1424"
   height="265.1424"
   viewBox="0 0 248.571 248.571"
   enable-background="new 0 0 248.571 248.571"
   xml:space="preserve"><defs
     id="defs55" /><path
     style="fill:#76c2af;fill-opacity:1"
     d="m 248.67753,125.08453 c 0.024,68.641 -55.601,124.305 -124.242,124.329 -68.641,0.024 -124.305004,-55.602 -124.329004,-124.243 0,-0.029 0,-0.058 0,-0.086 -0.024,-68.641 55.602004,-124.305 124.243004,-124.329 68.641,-0.023 124.305,55.602 124.328,124.243 0,0.028 0,0.057 0,0.086 z"
     id="path2985" /><path
     id="path4189-1-2"
     style="fill:#c1bc9d;fill-opacity:1;fill-rule:evenodd;stroke:#000000;stroke-width:0.823109px;stroke-linecap:butt;stroke-linejoin:miter;stroke-opacity:0"
     d="M 130.37608,41.393884 126.19396,85.406953 102.12474,51.678918 V 83.356173 L 79.101059,51.094812 V 85.165253 L 54.993379,51.382287 v 32.286996 2.18628 l -0.17944,0.007 0.17944,-2.19361 L 31.312352,50.48477 v 35.284433 h -0.13733 l -0.292969,54.373177 c 44.345306,-0.17808 88.695647,-0.0766 133.042607,-0.0766 V 88.296353 h -16.13708 l -2.12403,-46.902469 z" /><path
     id="path4189-1"
     style="fill:#e1e1e1;fill-opacity:1;fill-rule:evenodd;stroke:#000000;stroke-width:0.823109px;stroke-linecap:butt;stroke-linejoin:miter;stroke-opacity:0"
     d="M 127.65938,41.284445 123.47726,85.297504 99.408044,51.569479 V 83.246725 L 76.384364,50.985373 V 85.055807 L 52.276694,51.272848 v 32.286988 2.18628 l -0.17944,0.0073 0.17944,-2.193602 -23.68103,-33.184183 v 35.284423 h -0.13733 l -0.292969,54.373166 c 44.345299,-0.17837 88.695635,-0.0769 133.042595,-0.0769 V 88.186907 h -16.13708 l -2.12403,-46.902462 z" /><path
     id="path2993_1_"
     style="fill:#c1bc9d;stroke-width:0.903283"
     d="M 106.64453 140.70703 L 106.64453 140.83398 C 88.049079 142.31486 73.417969 157.86233 73.417969 176.83789 C 73.417969 196.79322 89.593504 212.9707 109.54883 212.9707 C 122.91976 212.9707 134.58576 205.70061 140.83398 194.9043 L 170.39844 194.9043 C 176.64646 205.70061 188.31205 212.9707 201.68359 212.9707 C 221.63891 212.9707 237.81445 196.79322 237.81445 176.83789 C 237.81445 157.03478 221.88118 140.96152 202.13477 140.71875 L 202.13477 140.70703 L 109.54883 140.70703 L 106.64453 140.70703 z "
     transform="scale(0.93750001)" /><path
     id="path2993"
     style="fill:#f2f2f2;stroke-width:0.846828"
     d="m 102.98401,124.22487 c -18.708123,0 -33.872681,15.1654 -33.872681,33.87268 0,18.70812 15.164558,33.87267 33.872681,33.87267 9.36994,0 17.85077,-3.80499 23.98316,-9.9536 h 38.41003 c 6.13228,6.14862 14.61278,9.9536 23.98316,9.9536 18.70811,0 33.87451,-15.16455 33.87451,-33.87267 0,-18.70728 -15.1664,-33.87268 -33.87451,-33.87268 -7.74728,0 -14.88166,2.60575 -20.58838,6.9818 H 123.5724 c -5.70663,-4.37566 -12.84184,-6.9818 -20.58839,-6.9818 z" /><g
     id="g177"
     transform="translate(0.69822714,-0.6982244)"><path
       id="path3055-4_2_"
       style="fill:#c1bc9d;stroke-width:0.846828"
       d="m 182.69301,159.36376 c 0,4.28749 -3.47453,7.76033 -7.75948,7.76033 -4.28664,0 -7.75948,-3.47369 -7.75948,-7.76033 0,-4.28495 3.47369,-7.75948 7.75948,-7.75948 4.28495,0 7.75948,3.47453 7.75948,7.75948 z m 31.67221,0.0169 c 0,4.28495 -3.47538,7.75948 -7.75864,7.75948 -4.28749,0 -7.76033,-3.47538 -7.76033,-7.75948 0,-4.28664 3.47369,-7.76033 7.76033,-7.76033 4.28326,0 7.75864,3.47453 7.75864,7.76033 z m -15.74592,15.77555 c 0,4.2858 -3.47453,7.75949 -7.75863,7.75949 -4.28664,0 -7.76033,-3.47454 -7.76033,-7.75949 0,-4.28664 3.47453,-7.76033 7.76033,-7.76033 4.28495,0 7.75863,3.47369 7.75863,7.76033 z m -0.12194,-31.78483 c 0,4.2858 -3.47538,7.75948 -7.76033,7.75948 -4.28495,0 -7.75948,-3.47368 -7.75948,-7.75948 0,-4.28579 3.47453,-7.75948 7.75948,-7.75948 4.28495,0 7.76033,3.47369 7.76033,7.75948 z" /><path
       id="path3055-4"
       style="fill:#333333;stroke-width:0.846828"
       d="m 182.69301,157.26909 c 0,4.28748 -3.47453,7.76032 -7.75948,7.76032 -4.28664,0 -7.75948,-3.47368 -7.75948,-7.76032 0,-4.28495 3.47369,-7.75949 7.75948,-7.75949 4.28495,0 7.75948,3.47454 7.75948,7.75949 z m 31.67221,0.0169 c 0,4.28495 -3.47538,7.75948 -7.75864,7.75948 -4.28749,0 -7.76033,-3.47538 -7.76033,-7.75948 0,-4.28664 3.47369,-7.76033 7.76033,-7.76033 4.28326,8.5e-4 7.75864,3.47454 7.75864,7.76033 z m -15.74592,15.77556 c 0,4.28579 -3.47453,7.75948 -7.75863,7.75948 -4.28664,0 -7.76033,-3.47454 -7.76033,-7.75948 0,-4.28665 3.47453,-7.76033 7.76033,-7.76033 4.28495,0 7.75863,3.47368 7.75863,7.76033 z m -0.12194,-31.78484 c 0,4.2858 -3.47538,7.75949 -7.76033,7.75949 -4.28495,0 -7.75948,-3.47454 -7.75948,-7.75949 0,-4.28579 3.47453,-7.75948 7.75948,-7.75948 4.28495,0 7.76033,3.47369 7.76033,7.75948 z" /></g><g
     id="g173"
     transform="translate(-31.070965,-4.5384556)"><path
       id="path39"
       style="fill:#c1bc9d;stroke-width:0.846828"
       d="m 132.53328,143.28316 c 3.21541,0 5.82194,2.60654 5.82194,5.82195 v 30.6975 c 0,3.21541 -2.60653,5.82194 -5.82194,5.82194 v 0 c -3.2154,0 -5.82194,-2.60653 -5.82194,-5.82194 v -30.6975 c 0,-3.21541 2.60654,-5.82195 5.82194,-5.82195 z m 21.27655,21.1707 c 0,3.2154 -2.60654,5.82194 -5.82194,5.82194 h -30.69751 c -3.2154,0 -5.82194,-2.60654 -5.82194,-5.82194 v 0 c 0,-3.21541 2.60654,-5.82194 5.82194,-5.82194 h 30.69751 c 3.2154,0 5.82194,2.60653 5.82194,5.82194 z" /><path
       id="path43"
       style="fill:#141212;stroke-width:0.846828"
       d="m 132.53277,140.15013 c -3.2154,0 -5.82092,2.60735 -5.82092,5.82276 v 9.52698 h -9.42078 c -3.2154,0 -5.82275,2.60551 -5.82275,5.82092 0,3.2154 2.60735,5.82275 5.82275,5.82275 h 9.42078 v 9.52698 c 0,3.21541 2.60552,5.82093 5.82092,5.82093 3.21541,0 5.82276,-2.60552 5.82276,-5.82093 v -9.52698 h 9.63317 c 3.2154,0 5.82093,-2.60735 5.82093,-5.82275 0,-3.21541 -2.60553,-5.82092 -5.82093,-5.82092 h -9.63317 v -9.52698 c 0,-3.21541 -2.60735,-5.82276 -5.82276,-5.82276 z" /></g></svg>
